<?xml version="1.0" encoding="UTF-8" standalone="no"?>
<!DOCTYPE svg PUBLIC "-//W3C//DTD SVG 1.1//EN" "http://www.w3.org/Graphics/SVG/1.1/DTD/svg11.dtd">
<svg xmlns="http://www.w3.org/2000/svg" version="1.1" viewBox="0 0 600 1032">
<path fill="#000000" d="
  M 599.99 704.01
  L 600.05 704.90
  Q 588.28 712.00 573.03 716.47
  C 570.71 717.15 572.00 718.52 573.44 718.63
  Q 580.56 719.17 578.03 725.21
  Q 576.58 728.67 579.90 729.71
  L 588.38 732.37
  Q 590.05 732.89 588.75 734.06
  Q 584.22 738.16 578.44 736.23
  A 0.98 0.97 31.9 0 0 577.43 736.46
  C 571.88 741.85 557.61 743.68 550.06 745.53
  Q 546.38 746.44 542.83 749.18
  A 1.01 1.01 0.0 0 0 542.44 749.89
  Q 542.17 753.19 538.86 752.11
  Q 533.48 750.36 528.11 748.57
  C 526.77 748.12 526.66 749.15 527.49 749.85
  Q 530.06 751.99 532.70 754.06
  Q 534.83 755.72 532.46 757.02
  C 526.83 760.13 521.60 762.17 516.44 766.31
  A 1.01 1.01 0.0 0 1 515.43 766.46
  Q 510.30 764.37 505.66 761.34
  C 502.25 759.11 502.35 761.84 502.13 764.21
  Q 502.02 765.29 501.83 766.36
  C 501.19 769.95 488.36 757.75 487.43 756.81
  Q 486.36 755.72 486.28 756.65
  A 0.76 0.75 -59.5 0 0 486.41 757.16
  L 490.62 763.50
  Q 491.79 765.25 489.69 765.05
  C 477.61 763.86 464.72 765.01 452.93 761.98
  C 447.05 760.47 439.63 756.71 432.53 754.88
  A 1.02 1.01 -66.1 0 0 431.43 755.31
  L 429.82 757.84
  A 1.02 1.01 18.7 0 1 428.88 758.30
  C 426.72 758.09 420.96 756.02 420.05 758.57
  A 1.01 0.99 42.7 0 0 420.09 759.36
  C 422.93 765.05 428.07 767.31 433.45 769.52
  Q 459.35 780.14 486.46 787.00
  C 497.61 789.82 505.77 790.38 516.21 787.60
  Q 522.59 785.89 529.39 784.10
  Q 531.64 783.51 533.62 784.72
  C 535.37 785.78 531.84 791.81 531.16 793.04
  Q 529.85 795.40 532.54 795.60
  Q 536.44 795.90 540.19 795.66
  Q 556.59 794.60 573.00 793.78
  C 574.83 793.69 587.32 793.59 579.22 799.10
  Q 575.51 801.63 570.96 802.31
  C 569.77 802.49 567.75 803.87 571.24 803.73
  C 574.43 803.60 598.28 804.11 594.34 811.58
  A 1.04 0.96 -87.8 0 1 593.92 812.00
  C 585.80 816.32 572.40 814.92 563.79 812.81
  C 562.49 812.49 551.49 809.38 551.62 811.07
  A 1.01 0.99 -81.5 0 0 552.24 811.92
  Q 562.06 815.86 571.78 820.00
  Q 576.19 821.88 578.91 825.78
  A 1.00 1.00 0.0 0 1 578.46 827.28
  C 572.24 829.77 562.00 826.78 555.77 824.90
  Q 552.57 823.93 549.63 825.29
  A 1.00 0.98 89.4 0 0 549.13 825.81
  C 545.99 833.30 531.13 825.39 523.57 831.48
  C 521.30 833.31 520.02 835.11 516.75 834.28
  Q 514.69 833.77 515.60 835.68
  C 518.48 841.73 524.84 844.91 526.29 851.48
  Q 527.10 855.15 523.61 853.38
  Q 513.96 848.47 507.26 839.99
  Q 505.06 837.21 503.35 839.82
  C 501.50 842.67 502.93 845.94 498.32 846.62
  Q 491.17 847.68 486.04 842.99
  A 0.83 0.82 58.1 0 0 485.29 842.81
  C 483.66 843.24 485.88 851.83 486.10 853.38
  C 487.07 860.29 479.36 853.63 476.85 851.83
  C 471.61 848.07 466.44 845.49 460.68 843.26
  Q 457.39 841.99 457.99 845.25
  L 460.08 856.47
  Q 460.54 858.92 458.74 857.20
  Q 453.00 851.68 447.00 846.51
  Q 445.76 845.43 444.60 845.80
  A 1.00 1.00 0.0 0 0 443.90 846.71
  L 443.75 850.18
  A 1.02 1.00 78.6 0 1 443.19 851.04
  Q 442.03 851.61 441.09 850.62
  Q 438.22 847.58 434.52 848.22
  A 1.03 1.03 0.0 0 1 433.65 847.95
  L 425.02 839.51
  A 1.01 1.00 55.9 0 0 423.95 839.30
  C 420.57 840.65 429.52 848.17 430.88 849.01
  Q 446.43 858.65 463.04 866.26
  C 477.30 872.80 491.02 878.88 505.18 882.35
  Q 522.67 886.65 538.75 878.74
  C 547.16 874.60 555.98 869.13 565.22 867.23
  Q 567.77 866.71 567.35 869.28
  C 566.91 871.98 557.39 879.90 554.99 881.98
  C 554.45 882.45 554.04 884.09 555.25 883.78
  C 569.44 880.17 581.14 876.86 592.49 876.50
  Q 594.73 876.43 594.97 878.32
  A 1.04 1.01 -32.4 0 1 594.81 878.99
  C 589.01 887.79 565.12 889.54 555.19 894.30
  Q 552.63 895.52 555.39 896.17
  Q 563.85 898.17 572.50 898.96
  C 574.86 899.17 589.88 900.84 589.86 903.51
  A 1.00 0.99 -11.0 0 1 589.23 904.43
  C 583.12 906.85 574.36 905.59 567.82 905.48
  Q 565.99 905.45 566.95 907.00
  C 569.68 911.44 574.64 910.41 578.22 911.76
  Q 583.55 913.77 585.51 916.83
  Q 586.59 918.51 584.60 918.37
  L 560.02 916.66
  A 2.76 1.67 15.3 0 0 558.06 917.22
  C 557.74 917.55 558.21 918.23 558.62 918.41
  Q 565.78 921.46 566.01 924.62
  A 0.98 0.98 0.0 0 1 565.30 925.65
  Q 558.72 927.56 552.42 927.83
  Q 547.79 928.04 552.85 929.27
  C 557.05 930.30 562.49 931.19 565.52 934.52
  A 1.00 1.00 0.0 0 1 565.15 936.12
  C 558.04 938.99 549.97 937.90 542.50 937.70
  Q 540.88 937.66 541.59 938.93
  A 0.97 0.95 86.8 0 0 542.05 939.35
  Q 545.43 940.89 548.39 943.12
  C 557.08 949.66 531.73 947.19 531.25 947.13
  Q 530.42 947.02 529.87 947.15
  Q 527.82 947.65 529.50 948.92
  C 531.04 950.09 535.68 953.77 532.85 955.20
  Q 531.09 956.09 528.99 955.53
  L 518.97 952.84
  A 1.00 0.99 34.3 0 0 518.11 953.00
  C 513.11 956.73 530.14 962.57 531.90 962.98
  C 545.96 966.29 561.38 969.32 574.91 971.02
  Q 582.86 972.02 590.89 972.06
  Q 593.27 972.07 591.59 973.76
  C 587.09 978.30 579.39 979.95 573.25 980.02
  C 572.03 980.03 565.26 979.86 564.86 980.99
  A 0.51 0.51 0.0 0 0 565.12 981.62
  C 569.04 983.51 572.96 985.23 574.15 988.72
  A 1.01 1.00 -18.5 0 1 573.51 989.99
  C 568.75 991.55 558.54 985.45 554.26 983.04
  Q 544.60 977.59 542.50 977.49
  C 539.95 977.36 541.07 979.31 541.98 980.16
  Q 546.92 984.77 552.27 988.91
  Q 553.90 990.16 551.91 990.67
  L 541.25 993.39
  A 1.00 1.00 0.0 0 0 540.70 994.96
  C 542.59 997.46 547.98 1002.45 546.54 1005.39
  A 0.99 0.99 0.0 0 1 545.49 1005.94
  Q 538.43 1004.83 532.45 1001.03
  Q 527.74 998.03 523.33 994.56
  Q 521.69 993.26 522.05 995.32
  Q 522.87 1000.01 519.37 1003.13
  C 514.37 1007.61 510.79 1003.67 506.40 999.83
  Q 498.86 993.22 491.25 986.67
  A 0.63 0.62 56.7 0 0 490.64 986.54
  C 489.91 986.77 493.01 993.83 493.20 994.61
  A 1.00 0.99 -28.2 0 1 492.90 995.58
  C 491.51 996.86 494.63 1000.17 495.49 1001.26
  Q 496.98 1003.12 495.63 1005.09
  C 493.61 1008.02 488.52 1013.98 484.71 1010.04
  Q 482.19 1007.43 480.34 1005.01
  Q 478.67 1002.83 477.76 1005.30
  L 474.67 1013.66
  Q 474.01 1015.43 472.91 1013.89
  L 467.50 1006.27
  Q 465.48 1003.43 462.68 1005.39
  L 457.56 1008.97
  A 1.00 0.99 48.1 0 1 456.33 1008.90
  Q 450.73 1003.99 448.74 996.82
  A 1.00 1.00 0.0 0 0 447.37 996.17
  Q 441.97 998.57 437.57 994.18
  C 437.30 993.91 436.76 993.85 436.71 994.36
  A 0.42 0.39 28.0 0 0 436.82 994.68
  Q 439.55 997.57 441.00 1001.25
  Q 441.66 1002.92 439.89 1002.60
  C 433.46 1001.42 427.97 997.63 421.81 995.54
  C 416.29 993.67 425.09 1003.24 425.19 1003.36
  A 1.01 1.00 -31.9 0 1 424.82 1004.93
  Q 419.53 1007.18 422.44 1012.28
  A 1.01 0.99 -50.3 0 1 422.51 1013.12
  Q 421.94 1014.70 420.25 1014.02
  Q 409.61 1009.72 397.07 1010.67
  A 1.01 1.01 0.0 0 0 396.15 1011.51
  C 395.41 1016.33 385.42 1009.24 383.92 1007.55
  A 0.33 0.33 0.0 0 0 383.43 1007.55
  L 383.21 1007.79
  A 0.79 0.77 59.6 0 0 383.03 1008.52
  C 386.75 1023.55 376.70 1013.84 372.56 1010.18
  Q 369.09 1007.11 368.17 1010.55
  Q 367.53 1012.92 365.55 1011.46
  Q 359.88 1007.27 352.71 1008.09
  C 349.62 1008.45 346.86 1005.48 345.45 1002.58
  C 344.49 1000.59 340.12 991.16 338.49 990.48
  C 336.20 989.53 338.98 996.61 339.13 997.46
  Q 339.46 999.38 337.70 998.53
  C 331.19 995.36 330.07 986.19 323.46 983.33
  A 1.00 0.99 19.3 0 0 322.10 983.98
  C 319.79 992.29 321.70 1008.74 325.05 1016.94
  C 327.23 1022.29 329.34 1026.58 328.62 1030.90
  A 1.02 1.00 -7.2 0 1 328.02 1031.66
  L 327.19 1032.00
  L 261.62 1031.97
  Q 269.19 1018.01 272.75 1002.70
  C 274.87 993.59 275.58 983.27 276.02 973.50
  Q 276.17 970.17 275.19 967.31
  A 1.01 1.01 0.0 0 0 274.17 966.63
  Q 266.53 967.20 262.79 961.27
  C 261.67 959.51 260.49 960.16 260.53 962.00
  C 260.64 967.20 260.67 974.14 257.63 978.61
  A 1.01 1.00 39.6 0 1 256.09 978.75
  Q 254.26 976.91 253.96 974.37
  A 0.64 0.63 1.8 0 0 253.43 973.81
  L 253.13 973.76
  A 0.52 0.51 2.3 0 0 252.54 974.30
  C 253.02 981.66 245.09 987.90 239.25 989.87
  Q 236.15 990.91 237.04 987.77
  C 237.41 986.43 239.30 980.83 238.15 980.01
  A 0.81 0.81 0.0 0 0 237.19 980.04
  C 231.71 984.37 227.94 993.62 224.50 999.72
  C 221.25 1005.50 212.73 1002.39 209.59 998.52
  Q 208.03 996.60 207.14 999.10
  L 204.53 1006.46
  Q 203.70 1008.79 200.97 1008.26
  Q 197.43 1007.56 196.12 1011.04
  Q 195.16 1013.56 194.11 1016.07
  A 1.01 1.00 35.8 0 1 192.43 1016.34
  L 187.60 1010.83
  A 1.01 1.00 47.1 0 0 186.15 1010.77
  C 183.57 1013.29 175.74 1023.51 172.87 1014.81
  Q 171.22 1009.83 171.13 1003.28
  Q 171.12 1002.62 170.88 1002.27
  Q 170.65 1001.94 170.32 1001.75
  A 1.00 0.99 37.3 0 0 169.11 1001.91
  C 164.55 1006.48 157.30 1015.53 151.03 1017.12
  Q 148.25 1017.83 147.27 1015.13
  Q 146.38 1012.68 146.86 1010.22
  Q 147.57 1006.51 148.34 1002.95
  Q 148.96 1000.11 146.98 1002.23
  Q 144.56 1004.83 142.33 1007.58
  C 139.10 1011.55 131.23 1015.70 125.90 1015.39
  C 118.70 1014.97 123.29 1006.93 121.63 1006.70
  A 0.83 0.80 -60.0 0 0 121.00 1006.88
  C 118.98 1008.58 112.35 1015.24 109.76 1013.79
  A 0.98 0.98 0.0 0 1 109.27 1013.15
  L 108.29 1009.03
  A 1.00 1.00 0.0 0 0 107.37 1008.26
  Q 104.28 1008.10 101.25 1008.76
  Q 97.10 1009.66 98.58 1005.84
  C 99.48 1003.51 106.67 993.88 105.41 992.45
  A 1.02 1.01 -27.0 0 0 104.45 992.14
  Q 101.30 992.80 100.04 993.53
  Q 88.98 999.90 76.26 1001.09
  C 67.53 1001.90 91.05 985.51 88.23 983.25
  A 0.99 0.98 55.2 0 0 87.30 983.08
  Q 78.93 985.73 70.27 986.94
  C 64.84 987.69 61.51 982.36 67.41 979.49
  C 78.48 974.10 92.13 973.49 103.84 968.95
  A 0.80 0.79 -14.8 0 0 104.34 968.10
  L 104.30 967.78
  A 0.42 0.41 -8.8 0 0 103.82 967.43
  C 100.60 967.99 94.33 970.45 92.46 966.53
  A 0.99 0.99 0.0 0 0 91.25 966.02
  C 86.61 967.55 74.13 976.21 70.00 973.80
  A 1.00 0.99 15.3 0 1 69.50 972.94
  C 69.50 970.48 71.40 968.28 69.86 966.12
  A 0.99 0.97 70.7 0 0 69.03 965.71
  C 65.24 965.79 60.61 970.44 57.95 972.91
  C 57.46 973.37 55.23 974.90 56.07 972.50
  Q 56.60 970.97 57.02 969.41
  Q 57.75 966.68 55.46 968.34
  L 51.88 970.95
  Q 49.76 972.49 50.31 969.93
  L 51.65 963.67
  Q 52.22 960.99 50.06 962.67
  C 45.84 965.94 39.10 970.84 33.78 971.63
  C 28.27 972.44 35.09 964.17 35.69 963.49
  Q 37.67 961.23 34.73 961.85
  C 32.23 962.38 27.37 964.01 25.20 963.04
  C 22.72 961.94 23.65 958.73 25.00 956.95
  Q 27.88 953.15 32.47 951.35
  A 1.02 1.00 4.9 0 0 32.93 950.97
  Q 34.48 948.67 31.30 949.03
  C 23.59 949.90 12.51 956.42 1.36 955.42
  A 1.02 1.02 0.0 0 1 0.72 955.10
  Q 0.20 954.54 0.00 953.94
  L -0.01 953.68
  C 6.36 946.04 16.34 943.92 25.30 939.07
  Q 26.86 938.22 26.72 936.46
  C 26.67 935.89 25.30 935.20 24.62 935.14
  C 19.99 934.69 14.72 935.12 11.21 931.69
  A 1.00 1.00 0.0 0 1 11.48 930.08
  Q 20.97 925.47 31.21 927.42
  C 40.80 929.24 35.23 923.94 33.11 920.80
  Q 32.07 919.25 33.94 919.24
  Q 42.90 919.18 51.83 920.23
  A 0.33 0.33 0.0 0 0 52.20 919.90
  L 52.20 919.64
  A 0.34 0.34 0.0 0 0 51.88 919.31
  Q 50.70 919.26 49.77 918.48
  C 44.42 913.97 51.10 914.19 53.28 914.45
  Q 62.49 915.56 69.03 919.03
  Q 71.85 920.53 75.03 920.31
  Q 92.83 919.10 109.49 915.24
  C 114.34 914.12 115.88 911.64 116.47 907.02
  Q 116.65 905.56 116.86 904.12
  Q 117.27 901.24 115.17 903.26
  Q 111.50 906.80 107.29 910.59
  Q 102.65 914.76 101.76 908.30
  C 100.98 902.68 106.33 897.98 109.39 893.79
  A 1.00 0.99 60.1 0 0 109.58 893.07
  Q 109.37 891.47 107.45 893.22
  C 106.69 893.91 74.73 924.40 77.04 915.01
  C 78.08 910.75 82.38 901.94 79.08 898.34
  A 1.00 1.00 0.0 0 0 77.46 898.54
  C 74.30 904.38 66.74 907.78 60.37 909.92
  A 0.98 0.97 -43.1 0 1 59.68 909.90
  C 56.33 908.55 56.16 899.61 55.77 896.31
  C 55.18 891.22 52.14 893.98 49.73 894.94
  C 45.95 896.45 34.16 901.17 34.22 895.02
  C 34.26 891.44 40.91 885.17 44.99 881.02
  A 0.99 0.99 0.0 0 0 45.23 880.01
  L 45.11 879.63
  A 0.81 0.81 0.0 0 0 44.11 879.11
  C 33.06 882.46 22.55 887.12 10.61 883.74
  C 6.61 882.61 2.88 879.31 8.27 875.81
  C 14.60 871.70 31.18 875.44 35.23 870.33
  A 1.00 1.00 0.0 0 0 35.23 869.09
  Q 30.70 863.34 24.17 862.62
  C 22.10 862.39 18.92 860.00 23.75 859.23
  Q 28.01 858.55 37.82 858.36
  Q 54.91 858.03 72.00 858.43
  C 75.64 858.52 97.40 859.35 102.19 854.51
  Q 102.99 853.70 102.89 853.34
  A 1.21 1.03 67.4 0 0 101.31 852.53
  Q 99.22 853.79 96.88 853.60
  A 1.00 0.99 -81.4 0 1 95.99 852.39
  L 96.53 849.90
  Q 96.90 848.20 95.24 848.73
  C 93.79 849.20 77.83 855.22 79.88 848.87
  A 1.02 0.99 89.1 0 1 80.47 848.24
  Q 83.01 847.26 84.54 845.09
  A 1.00 0.98 53.9 0 0 84.67 844.22
  Q 84.15 842.52 81.97 843.45
  Q 75.38 846.26 68.65 848.82
  A 1.01 1.00 -43.4 0 1 67.88 848.80
  C 63.66 846.92 68.31 844.72 69.68 843.67
  A 1.01 0.98 77.2 0 0 70.05 843.06
  Q 70.28 841.82 69.07 842.26
  Q 64.05 844.09 59.76 843.05
  C 56.01 842.13 59.45 839.07 61.22 838.49
  A 0.42 0.41 -7.6 0 0 61.50 838.13
  C 61.60 836.59 51.12 840.55 50.11 840.88
  A 1.00 0.99 -35.0 0 1 49.18 840.72
  C 40.57 834.02 56.35 827.34 61.99 824.94
  C 62.86 824.57 63.84 823.15 61.51 823.53
  C 53.96 824.77 37.03 828.07 32.53 819.68
  Q 30.97 816.77 35.24 815.65
  Q 37.70 815.01 40.25 815.07
  C 44.00 815.15 53.96 815.58 56.06 811.23
  A 1.00 0.98 -80.0 0 1 56.84 810.67
  C 61.44 810.11 65.22 811.74 69.72 811.77
  A 1.01 1.00 -10.9 0 0 70.66 810.39
  L 69.88 808.50
  A 1.01 1.00 -21.6 0 1 70.45 807.19
  L 72.31 806.48
  A 1.02 1.02 0.0 0 0 72.96 805.61
  C 73.31 800.52 69.02 795.90 65.12 793.07
  A 0.99 0.99 0.0 0 0 63.74 793.28
  Q 60.25 797.90 54.81 800.07
  Q 52.06 801.17 50.12 799.15
  Q 45.10 793.92 37.82 793.43
  Q 34.88 793.24 34.57 789.97
  L 34.01 784.02
  Q 33.79 781.65 31.02 782.02
  L 26.75 782.60
  Q 23.99 782.97 24.70 779.48
  C 25.94 773.48 31.39 769.37 36.80 765.98
  C 37.54 765.51 38.17 764.34 36.49 764.44
  C 26.57 765.03 17.81 762.89 8.87 758.87
  Q 5.93 757.54 4.66 756.07
  C 0.16 750.84 14.67 751.13 16.76 751.28
  Q 27.91 752.09 38.51 755.71
  Q 38.73 755.79 38.90 755.80
  Q 39.91 755.86 39.23 755.11
  L 30.75 745.76
  Q 28.50 743.29 31.77 741.99
  C 37.22 739.83 53.34 744.94 59.28 746.63
  C 61.05 747.13 62.37 746.35 60.79 744.57
  Q 54.43 737.38 65.00 737.89
  Q 78.94 738.57 91.78 744.07
  C 100.32 747.73 119.00 740.32 129.07 737.08
  C 135.54 734.99 143.38 732.86 147.17 727.53
  Q 149.86 723.76 150.65 718.60
  Q 151.11 715.62 148.96 717.73
  Q 142.07 724.52 132.92 726.11
  Q 130.59 726.51 129.33 726.21
  Q 126.63 725.56 127.62 722.98
  Q 130.16 716.36 134.01 710.71
  C 134.52 709.97 134.19 708.84 133.33 709.98
  Q 129.25 715.40 124.14 719.02
  A 1.00 1.00 0.0 0 1 122.58 718.39
  C 121.93 715.01 122.24 710.79 117.25 711.30
  C 101.10 712.92 116.07 705.99 116.18 704.07
  A 0.41 0.40 81.3 0 0 115.63 703.66
  Q 105.18 707.69 94.00 708.14
  Q 90.17 708.30 90.17 704.00
  Q 90.17 700.82 87.30 702.20
  C 86.32 702.67 75.69 708.06 77.44 702.66
  C 78.14 700.48 81.41 698.27 83.27 696.97
  Q 85.31 695.54 82.85 695.16
  Q 75.75 694.07 68.63 692.93
  C 63.15 692.05 61.25 686.22 67.62 685.10
  Q 74.13 683.95 80.69 684.31
  A 0.99 0.96 -60.8 0 0 81.36 684.11
  Q 82.47 683.24 80.23 683.09
  Q 65.21 682.13 53.07 673.23
  Q 49.85 670.86 48.18 668.02
  Q 47.00 666.02 49.27 666.54
  Q 58.97 668.77 68.56 671.42
  C 75.89 673.44 86.03 673.21 91.48 673.72
  Q 99.40 674.46 107.27 675.61
  C 109.74 675.98 108.01 674.53 107.41 674.27
  C 105.05 673.27 101.68 671.37 101.11 668.70
  C 100.38 665.24 104.84 665.98 106.78 666.79
  C 114.22 669.89 119.89 675.79 129.35 674.56
  C 151.95 671.62 172.46 666.96 193.96 657.18
  A 0.98 0.97 86.6 0 0 194.50 656.57
  L 194.88 655.32
  A 1.00 1.00 0.0 0 0 194.14 654.05
  C 190.18 653.16 185.65 654.22 181.49 654.25
  Q 178.38 654.27 177.96 651.18
  C 177.31 646.33 171.10 645.98 169.65 651.01
  A 1.00 1.00 0.0 0 1 168.60 651.73
  Q 167.74 651.65 167.31 651.21
  Q 163.22 646.99 157.86 648.39
  C 148.86 650.75 154.18 641.80 155.55 638.62
  C 156.11 637.34 154.92 637.64 154.47 638.01
  C 150.44 641.35 143.51 647.33 138.10 647.30
  A 1.04 0.99 64.2 0 1 137.44 647.05
  Q 135.38 645.23 135.74 642.74
  Q 136.39 638.15 137.46 633.66
  Q 138.07 631.06 135.90 632.62
  Q 130.99 636.14 125.94 639.44
  Q 122.48 641.69 118.51 641.94
  A 1.01 0.99 -13.6 0 1 117.54 641.36
  C 116.16 638.37 113.37 627.98 108.22 633.21
  Q 102.88 638.62 95.83 635.85
  A 1.01 1.01 0.0 0 1 95.37 634.36
  C 95.81 633.69 106.96 620.52 99.39 624.12
  C 95.07 626.18 93.36 632.36 86.46 631.10
  A 0.99 0.98 83.3 0 1 85.72 630.51
  L 84.60 627.91
  Q 83.87 626.22 81.50 626.58
  L 76.30 627.37
  A 1.01 0.99 72.0 0 1 75.26 626.83
  L 73.87 624.08
  Q 72.82 622.01 70.22 622.35
  L 59.87 623.73
  Q 57.17 624.09 59.00 622.07
  Q 62.90 617.76 68.30 614.05
  C 70.15 612.77 77.48 612.41 72.64 607.62
  A 1.00 0.99 64.8 0 0 71.85 607.33
  Q 61.97 608.18 54.85 602.31
  C 52.88 600.68 51.67 597.58 55.76 597.27
  C 58.72 597.05 64.88 599.64 67.09 595.82
  A 1.01 0.98 -82.4 0 1 67.66 595.37
  Q 72.04 594.03 76.56 593.56
  C 99.53 591.18 122.63 590.61 145.68 589.35
  C 155.08 588.83 168.41 588.50 176.97 584.47
  C 178.65 583.68 179.68 581.49 177.26 580.73
  Q 174.59 579.89 169.74 580.17
  C 163.54 580.52 155.57 577.20 153.91 570.84
  A 1.00 1.00 0.0 0 1 154.74 569.60
  Q 162.88 568.40 171.55 568.39
  C 175.14 568.38 178.60 567.64 180.57 564.90
  Q 182.13 562.73 184.80 562.58
  C 194.36 562.04 207.36 557.91 213.80 550.33
  C 218.87 544.36 203.43 548.29 202.25 548.51
  Q 198.97 549.11 200.52 545.75
  Q 201.23 544.21 199.73 543.74
  A 1.02 1.02 0.0 0 0 198.74 543.97
  C 195.56 547.00 194.94 552.49 192.67 556.38
  A 0.98 0.98 0.0 0 1 191.71 556.87
  C 187.83 556.50 188.59 550.61 188.29 547.97
  Q 188.00 545.51 186.50 547.48
  L 179.27 556.92
  Q 178.16 558.37 177.53 556.66
  L 174.30 547.76
  Q 173.34 545.10 172.42 547.78
  Q 170.94 552.09 168.91 556.18
  C 165.37 563.27 154.41 561.07 148.13 559.79
  A 1.03 1.02 -12.1 0 1 147.52 559.40
  Q 145.20 556.23 145.91 552.20
  Q 146.39 549.42 144.14 550.58
  A 0.99 0.96 -5.6 0 0 143.65 551.16
  Q 141.46 557.97 134.96 561.21
  A 0.99 0.99 0.0 0 1 133.55 560.55
  Q 132.87 557.68 133.77 554.99
  Q 134.69 552.25 131.99 551.67
  C 124.92 550.15 118.78 552.07 111.75 553.47
  Q 108.96 554.02 109.39 551.59
  L 109.95 548.38
  A 1.01 1.00 16.3 0 0 109.35 547.29
  Q 105.86 545.81 102.75 546.22
  C 94.37 547.32 103.59 539.41 105.11 537.54
  Q 106.38 535.98 104.37 535.91
  Q 93.42 535.54 84.31 529.16
  C 82.23 527.71 79.79 526.32 79.45 523.78
  A 1.00 1.00 0.0 0 1 80.43 522.65
  Q 91.31 522.51 102.09 521.06
  C 112.40 519.66 104.39 508.44 115.25 509.51
  C 119.76 509.95 124.71 509.50 129.76 507.83
  C 137.24 505.35 146.03 506.40 152.01 505.25
  C 155.71 504.54 156.88 500.98 161.32 501.03
  Q 163.60 501.06 165.45 499.73
  C 170.24 496.29 173.94 492.75 180.23 492.86
  Q 183.58 492.91 181.49 490.30
  C 178.90 487.07 168.90 473.50 181.45 474.96
  C 183.65 475.22 190.98 476.10 191.03 473.43
  A 0.99 0.98 22.8 0 0 190.73 472.70
  C 176.01 458.30 167.72 481.97 155.63 485.33
  A 1.01 1.00 79.5 0 1 154.37 484.46
  C 153.87 479.47 148.26 481.81 145.31 482.31
  A 1.00 0.99 -86.5 0 1 144.19 481.04
  L 145.54 476.52
  Q 146.30 474.02 143.66 474.59
  Q 141.76 475.01 139.31 475.53
  C 132.25 477.04 137.71 465.85 133.47 464.99
  A 1.01 1.00 34.0 0 0 132.73 465.13
  C 128.17 468.03 120.59 469.41 117.54 463.61
  A 1.04 0.97 38.0 0 1 117.44 462.97
  Q 118.58 456.66 113.00 454.72
  C 110.27 453.77 99.73 449.92 101.02 447.28
  C 102.50 444.25 117.77 446.66 121.20 446.82
  Q 124.02 446.96 123.01 444.33
  Q 121.41 440.17 125.45 439.93
  C 131.26 439.59 133.62 444.50 138.34 446.22
  C 145.73 448.91 164.14 446.87 170.22 440.72
  A 0.98 0.95 68.9 0 0 170.50 440.06
  C 170.82 433.10 154.98 444.54 153.10 434.71
  C 152.66 432.38 154.24 430.09 155.67 428.38
  A 0.42 0.39 63.6 0 0 155.76 428.07
  C 155.65 427.09 148.78 431.47 148.74 431.48
  C 144.23 433.48 133.85 432.20 137.17 424.54
  Q 138.65 421.10 135.50 421.03
  L 126.49 420.81
  A 1.00 0.99 -87.8 0 1 125.52 419.75
  C 125.80 414.75 126.52 411.90 121.58 408.91
  Q 116.79 406.01 112.08 402.95
  A 1.00 1.00 0.0 0 1 111.85 401.49
  Q 115.31 397.16 120.59 396.15
  A 1.01 0.98 -33.0 0 1 121.34 396.30
  Q 128.82 401.37 137.84 399.58
  Q 140.15 399.12 139.57 396.03
  L 138.45 390.01
  A 1.01 1.00 76.4 0 1 139.14 388.87
  C 144.01 387.38 148.55 391.36 152.51 393.54
  C 161.55 398.52 168.82 397.09 178.49 395.19
  C 189.95 392.94 205.95 390.07 214.16 380.48
  A 0.51 0.50 62.6 0 0 214.28 380.08
  Q 214.20 379.50 213.66 379.94
  C 211.37 381.76 206.36 386.88 203.64 386.05
  Q 202.45 385.68 200.54 383.24
  Q 197.05 378.77 191.86 378.43
  Q 189.15 378.26 188.70 375.58
  C 187.69 369.65 183.45 370.67 181.04 366.95
  Q 178.20 362.55 176.00 357.79
  Q 174.73 355.02 173.00 355.90
  C 167.63 358.60 172.04 346.42 166.52 353.03
  Q 164.02 356.02 161.29 358.88
  Q 159.80 360.44 159.57 358.29
  L 159.08 353.50
  Q 158.83 351.05 156.04 350.93
  C 152.63 350.78 144.86 351.76 145.30 346.34
  A 1.02 0.98 -64.2 0 0 145.06 345.61
  Q 142.91 343.12 139.47 343.67
  Q 133.62 344.60 128.26 341.86
  A 1.00 1.00 0.0 0 1 127.91 340.38
  L 131.59 335.37
  Q 132.63 333.96 130.88 333.79
  Q 117.89 332.50 108.66 323.27
  A 1.00 1.00 0.0 0 1 108.89 321.69
  Q 111.38 320.33 114.24 320.81
  Q 123.65 322.40 133.09 323.73
  Q 136.27 324.18 138.14 323.90
  A 1.00 1.00 0.0 0 0 138.91 322.50
  C 137.65 319.74 132.18 311.86 139.04 312.19
  C 144.22 312.44 153.49 321.30 158.15 324.48
  Q 160.43 326.03 161.42 323.43
  Q 163.19 318.75 162.70 313.75
  Q 162.42 310.90 160.00 309.45
  C 155.71 306.87 149.22 299.72 161.50 302.76
  Q 163.17 303.18 163.22 300.99
  A 1.01 1.01 0.0 0 1 164.00 300.03
  C 169.80 298.69 179.75 298.70 182.68 305.27
  A 1.00 0.99 64.5 0 0 184.04 305.76
  C 191.65 301.95 188.39 294.30 182.68 291.07
  Q 180.43 289.79 178.14 291.00
  C 177.29 291.45 171.00 294.28 170.53 293.24
  Q 169.76 291.54 170.21 289.74
  Q 171.65 283.95 167.55 284.93
  Q 162.56 286.13 160.28 285.21
  A 1.01 1.01 0.0 0 1 159.69 284.00
  Q 161.62 277.36 157.58 277.64
  Q 152.70 277.98 147.84 277.74
  Q 146.05 277.64 147.07 276.17
  C 147.79 275.14 153.32 269.15 152.49 268.24
  A 0.81 0.79 -28.0 0 0 151.70 268.01
  L 146.76 269.29
  Q 144.28 269.93 143.62 267.13
  C 142.15 260.91 149.02 256.26 154.35 258.02
  C 160.23 259.97 164.28 260.54 170.64 259.72
  A 1.00 1.00 0.0 0 0 171.50 258.56
  L 170.61 253.41
  Q 170.07 250.24 173.26 251.23
  C 179.32 253.11 185.30 257.75 191.71 257.30
  C 195.38 257.05 197.45 258.20 199.89 260.55
  A 0.62 0.61 64.2 0 0 200.36 260.72
  Q 201.05 260.70 200.33 259.91
  Q 196.49 255.73 194.49 251.04
  C 192.76 246.96 195.73 246.08 198.80 247.33
  Q 212.79 253.03 225.25 259.87
  A 1.03 1.02 46.6 0 0 226.16 259.90
  Q 246.44 250.47 263.78 238.06
  C 267.68 235.27 273.07 230.60 275.23 227.22
  C 277.57 223.55 276.26 219.88 275.19 216.10
  C 275.02 215.52 274.49 215.04 273.98 215.59
  A 0.62 0.62 0.0 0 0 273.81 216.04
  C 274.12 229.42 257.63 236.22 246.51 235.20
  Q 243.94 234.97 242.06 237.31
  L 240.28 239.52
  Q 239.06 241.02 237.61 239.17
  Q 234.52 235.26 232.32 238.77
  Q 229.51 243.26 225.59 246.77
  C 222.94 249.15 220.07 248.46 221.00 244.36
  Q 221.41 242.54 221.82 240.72
  Q 222.36 238.32 220.29 239.66
  Q 219.09 240.45 218.00 241.49
  C 214.96 244.38 210.18 246.01 206.38 243.71
  C 202.00 241.06 206.27 237.50 208.91 235.76
  C 214.19 232.28 219.06 229.68 223.02 223.99
  A 0.83 0.80 -43.1 0 0 223.06 223.14
  C 222.13 221.49 214.87 228.09 213.07 229.33
  C 209.97 231.47 207.03 231.59 203.48 232.36
  Q 196.97 233.77 192.89 238.85
  A 1.00 1.00 0.0 0 1 191.99 239.21
  Q 188.59 238.80 187.27 235.70
  A 1.01 1.00 -49.7 0 1 187.22 235.04
  C 189.18 227.83 180.94 229.46 181.61 225.55
  C 182.23 221.92 190.56 218.52 194.12 217.22
  Q 195.95 216.55 195.11 215.36
  C 192.58 211.72 184.74 217.92 182.96 219.94
  Q 177.37 226.26 169.47 227.66
  C 165.08 228.44 160.79 225.45 163.17 220.82
  C 165.09 217.07 169.85 214.56 173.74 212.90
  C 175.17 212.29 175.40 210.93 173.31 211.33
  C 160.94 213.66 148.08 213.13 138.04 206.31
  Q 133.89 203.50 136.16 200.78
  C 137.91 198.69 142.98 198.12 145.24 198.00
  Q 153.33 197.59 162.76 196.17
  Q 165.47 195.77 163.95 193.49
  C 157.13 183.26 169.46 183.10 174.87 187.68
  Q 192.04 202.20 213.73 205.55
  C 215.03 205.75 214.32 204.57 213.86 204.36
  C 211.31 203.17 198.83 196.93 202.63 193.02
  Q 204.35 191.25 206.77 191.74
  C 219.83 194.41 227.75 205.13 241.49 205.48
  Q 257.83 205.91 273.34 203.18
  Q 276.49 202.63 275.76 199.48
  Q 274.33 193.28 271.20 187.68
  Q 270.26 186.00 269.43 187.73
  Q 267.78 191.13 265.84 194.36
  C 264.62 196.40 262.50 197.76 262.08 193.72
  A 0.26 0.26 0.0 0 0 261.81 193.49
  L 261.51 193.50
  A 0.80 0.78 -79.0 0 0 260.80 193.99
  Q 258.58 199.27 252.45 197.46
  Q 250.26 196.82 250.57 194.48
  C 250.70 193.48 252.51 185.34 250.93 185.70
  A 1.04 1.00 -76.3 0 0 250.38 186.05
  C 247.24 189.91 241.74 192.13 236.98 190.03
  Q 233.05 188.30 235.81 185.21
  C 237.69 183.11 241.29 180.21 244.11 178.20
  Q 247.16 176.02 243.43 176.39
  L 235.12 177.21
  A 1.00 1.00 0.0 0 0 234.23 178.02
  C 233.41 182.44 227.97 182.35 224.48 181.05
  A 1.00 0.99 85.8 0 1 223.94 180.58
  C 220.68 174.45 213.65 174.67 208.17 177.18
  C 203.51 179.32 198.86 176.59 197.00 172.21
  C 195.00 167.50 203.12 165.27 206.24 164.68
  Q 211.54 163.67 216.90 163.03
  Q 218.90 162.80 217.28 161.60
  Q 213.68 158.91 210.17 156.11
  Q 206.53 153.20 210.67 151.58
  A 0.82 0.81 88.5 0 0 211.14 151.08
  C 211.40 150.26 210.32 149.99 209.69 150.04
  Q 205.20 150.38 204.12 146.16
  A 1.00 1.00 0.0 0 0 202.70 145.52
  Q 197.00 148.41 192.45 142.71
  A 1.00 0.98 -55.0 0 1 192.29 141.75
  C 194.23 136.32 201.99 135.95 207.00 135.51
  Q 207.82 135.44 207.47 134.72
  A 0.86 0.80 2.2 0 0 207.09 134.34
  C 201.48 131.71 196.26 128.99 193.38 123.16
  C 191.20 118.74 192.02 112.63 198.62 115.37
  C 208.44 119.45 218.03 126.52 227.24 131.99
  C 237.50 138.08 233.07 123.31 243.59 127.09
  Q 245.53 127.78 245.21 126.80
  A 4.03 4.01 -81.7 0 0 243.65 124.70
  C 239.06 121.53 229.58 113.61 231.23 107.34
  Q 232.17 103.80 235.47 105.50
  L 247.71 111.83
  Q 251.11 113.59 250.95 109.70
  Q 250.72 104.43 250.22 99.19
  Q 249.85 95.23 247.09 98.11
  C 242.89 102.49 235.91 104.26 233.10 97.17
  C 231.02 91.93 236.51 90.56 239.93 89.23
  Q 242.02 88.43 241.20 86.34
  C 239.11 81.04 234.08 76.13 230.44 71.80
  C 227.90 68.80 221.33 58.28 228.36 57.24
  C 234.10 56.39 237.06 60.91 241.27 63.76
  Q 244.01 65.61 247.29 65.79
  A 1.00 0.99 85.0 0 0 248.31 64.56
  C 246.71 57.80 253.04 49.35 257.95 59.44
  C 261.20 66.13 259.32 72.65 261.70 79.30
  A 1.04 1.01 9.5 0 0 262.03 79.75
  L 265.03 82.05
  A 1.02 1.02 0.0 0 1 265.42 82.81
  Q 265.53 86.56 267.61 89.66
  A 1.02 0.99 79.0 0 0 268.20 90.07
  C 272.99 91.28 269.91 68.09 269.49 66.00
  C 266.86 52.89 248.01 44.16 249.83 30.06
  Q 250.40 25.71 253.60 28.90
  L 270.60 45.88
  Q 272.25 47.53 272.31 45.20
  L 273.41 2.25
  Q 273.47 -0.28 275.15 1.61
  Q 276.83 3.48 278.68 5.31
  C 285.82 12.36 284.03 22.01 283.70 31.01
  Q 283.61 33.44 284.51 35.71
  C 287.92 44.26 292.43 30.78 293.80 29.04
  C 295.98 26.26 301.82 23.17 305.63 23.93
  Q 309.98 24.80 306.89 29.94
  C 301.46 38.95 294.47 46.14 289.02 54.00
  C 283.56 61.87 282.41 71.36 282.24 80.70
  Q 282.19 83.14 283.94 81.43
  C 285.80 79.60 287.51 76.55 290.93 77.27
  A 1.00 1.00 0.0 0 0 292.14 76.34
  L 292.25 73.80
  Q 292.26 73.67 292.29 73.56
  Q 295.43 63.06 301.95 55.44
  C 307.46 48.99 307.46 56.66 306.79 59.76
  Q 306.62 60.54 306.55 61.34
  Q 306.35 63.54 308.13 62.24
  Q 318.69 54.55 331.51 51.84
  Q 335.36 51.03 334.39 54.02
  Q 333.73 56.05 331.49 57.52
  Q 324.90 61.87 319.13 67.26
  A 1.01 1.00 50.2 0 0 319.01 68.59
  Q 320.08 70.04 322.24 68.45
  A 1.01 1.01 0.0 0 1 323.51 68.52
  C 326.56 71.27 329.62 74.94 333.79 75.55
  Q 335.75 75.84 336.40 76.72
  C 338.93 80.12 331.95 81.44 329.18 81.71
  Q 321.30 82.46 309.41 79.84
  C 307.36 79.38 304.34 79.46 302.70 80.16
  C 295.79 83.11 311.42 85.14 311.84 85.16
  A 1.02 0.98 -26.5 0 1 312.35 85.32
  Q 320.12 90.49 325.97 97.79
  Q 327.75 100.01 325.25 101.45
  Q 319.66 104.66 314.13 101.44
  Q 312.23 100.33 310.83 101.82
  C 308.62 104.19 305.88 107.87 302.89 108.67
  C 296.65 110.37 298.92 102.53 299.57 99.51
  A 0.99 0.99 0.0 0 0 298.60 98.30
  C 293.87 98.30 287.55 99.67 285.93 104.70
  Q 283.65 111.81 285.14 119.17
  A 0.97 0.94 19.0 0 0 285.39 119.66
  C 290.24 124.74 287.29 141.91 288.57 149.27
  Q 289.14 152.54 292.01 150.87
  C 301.37 145.43 315.99 134.55 319.13 124.29
  Q 322.45 113.46 329.37 103.90
  Q 331.44 101.04 334.34 103.06
  C 336.82 104.78 339.06 111.63 342.95 108.96
  Q 344.96 107.58 352.56 99.07
  C 354.48 96.93 359.53 92.39 362.22 96.71
  C 364.98 101.13 355.07 112.06 352.56 115.26
  Q 351.15 117.07 353.43 116.88
  C 355.60 116.70 374.76 115.49 370.35 122.12
  C 368.70 124.59 363.89 127.09 361.18 128.69
  A 1.00 0.98 82.1 0 0 360.72 129.31
  L 359.77 133.18
  A 1.02 0.99 -7.1 0 1 359.26 133.82
  C 357.36 134.81 354.39 136.00 353.72 138.07
  C 352.82 140.89 355.81 141.69 358.06 141.88
  C 363.92 142.38 369.60 142.57 372.52 148.69
  A 1.00 0.99 -37.0 0 1 372.36 149.79
  C 368.76 153.81 364.85 151.49 361.78 154.54
  A 0.95 0.94 -20.8 0 0 361.49 155.17
  Q 361.28 157.83 358.76 156.69
  Q 356.84 155.83 356.02 157.79
  L 353.81 163.07
  Q 352.74 165.64 350.46 164.31
  L 342.84 159.90
  Q 340.39 158.48 338.87 160.91
  C 335.10 166.95 332.36 170.42 342.51 171.35
  Q 351.59 172.19 360.44 174.46
  A 1.00 1.00 0.0 0 1 361.12 175.80
  C 358.98 181.12 350.08 184.74 344.59 184.64
  Q 342.59 184.61 343.76 186.23
  L 346.72 190.31
  Q 348.14 192.26 345.01 193.04
  C 342.51 193.65 337.29 195.01 335.55 196.91
  C 333.45 199.22 336.84 199.62 338.27 199.43
  Q 343.02 198.82 346.99 196.40
  C 352.20 193.23 359.29 190.08 365.09 194.25
  Q 369.08 197.12 362.91 201.63
  A 1.00 0.99 51.8 0 0 362.74 203.08
  C 366.65 207.66 378.53 209.54 384.51 209.78
  Q 387.78 209.91 388.66 213.06
  C 389.85 217.27 398.80 220.26 402.33 222.44
  C 409.49 226.87 387.47 232.99 385.54 233.32
  C 382.29 233.89 380.06 234.97 377.20 236.19
  A 1.02 1.01 -40.4 0 1 376.28 236.12
  C 375.04 235.35 368.50 229.09 368.47 229.10
  A 0.64 0.64 0.0 0 0 368.10 229.88
  Q 368.77 232.14 366.40 232.62
  Q 364.44 233.01 364.39 234.99
  Q 364.29 238.84 362.97 242.45
  Q 361.77 245.72 358.51 243.89
  Q 349.32 238.71 343.61 230.62
  C 342.76 229.42 341.75 220.38 337.84 226.01
  A 1.10 1.05 -27.5 0 0 337.66 226.53
  C 337.34 232.10 332.68 225.75 332.24 228.38
  C 331.96 230.01 334.99 235.40 335.86 236.95
  Q 337.44 239.74 334.25 240.15
  C 324.09 241.45 316.76 233.39 315.05 224.15
  A 0.51 0.50 -7.0 0 0 314.52 223.74
  L 314.23 223.75
  A 0.26 0.26 0.0 0 0 313.98 223.99
  C 313.62 229.37 313.49 234.05 309.17 237.93
  Q 307.11 239.78 305.07 237.92
  C 300.68 233.93 294.92 226.09 295.35 219.74
  C 295.38 219.19 295.42 205.15 291.91 210.36
  C 290.20 212.91 292.62 222.49 293.57 225.40
  C 297.07 236.21 301.15 243.89 313.74 243.41
  C 316.51 243.31 327.47 241.83 329.52 246.03
  A 0.94 0.91 39.9 0 1 329.59 246.71
  Q 328.25 251.93 323.32 254.23
  Q 321.36 255.15 323.33 256.05
  C 330.11 259.15 339.29 262.44 346.62 259.49
  Q 355.64 255.85 363.48 250.06
  C 365.09 248.87 368.67 243.01 371.00 246.93
  C 372.04 248.69 371.16 251.80 370.67 253.82
  Q 370.24 255.60 371.97 255.00
  Q 377.06 253.23 382.72 251.43
  Q 384.90 250.73 385.08 252.42
  C 385.33 254.88 382.71 255.73 384.92 258.50
  A 0.99 0.97 -19.5 0 0 385.71 258.87
  Q 392.28 258.83 388.85 265.02
  A 1.00 0.99 -73.8 0 0 389.66 266.50
  C 394.49 266.80 403.57 261.55 408.24 259.50
  C 409.61 258.90 424.83 254.75 421.50 260.98
  Q 420.29 263.24 423.50 263.71
  C 430.68 264.77 439.32 263.22 445.56 267.41
  A 1.01 1.01 0.0 0 1 445.96 268.52
  C 443.02 278.85 430.02 276.54 422.00 275.74
  A 0.51 0.51 0.0 0 0 421.52 275.97
  C 420.82 277.04 427.42 280.40 428.52 281.11
  Q 430.65 282.50 428.15 282.93
  Q 421.83 284.04 414.42 287.10
  Q 410.44 288.74 414.05 291.17
  Q 416.46 292.79 418.24 294.50
  Q 419.88 296.06 417.62 296.22
  Q 413.06 296.54 408.66 295.41
  C 406.39 294.83 405.35 293.40 403.41 292.15
  A 0.99 0.98 -36.7 0 0 402.57 292.03
  C 398.42 293.33 398.65 290.41 396.86 288.32
  Q 394.35 285.38 390.23 285.77
  Q 388.41 285.94 389.54 287.38
  C 393.41 292.31 398.90 295.75 403.07 300.59
  C 404.43 302.17 403.82 303.96 401.76 303.95
  Q 393.40 303.89 386.81 299.09
  C 384.77 297.61 382.01 293.65 379.44 292.81
  C 370.51 289.87 374.46 304.37 374.24 308.37
  A 1.02 1.00 87.2 0 1 373.40 309.31
  C 364.67 310.70 358.95 304.77 354.04 298.66
  C 353.01 297.38 350.94 297.04 352.03 299.45
  Q 353.24 302.12 352.65 304.93
  A 1.01 1.01 0.0 0 1 351.93 305.69
  C 347.19 306.98 344.25 305.48 341.45 301.63
  Q 337.07 295.62 328.97 297.45
  A 1.00 1.00 0.0 0 0 328.26 298.79
  C 334.28 314.41 366.01 323.85 379.75 326.00
  C 388.90 327.43 398.74 318.29 405.41 312.65
  C 407.03 311.29 420.93 302.52 411.29 314.12
  C 408.52 317.46 408.62 321.05 414.36 318.74
  Q 414.63 318.63 414.92 318.56
  Q 416.80 318.12 415.78 319.76
  Q 414.68 321.52 413.48 323.14
  C 412.72 324.15 412.60 325.98 414.51 325.55
  C 421.18 324.06 428.86 317.47 435.69 314.22
  C 439.12 312.59 438.42 315.28 437.39 316.70
  Q 435.73 318.96 434.27 320.99
  Q 433.13 322.58 435.08 322.58
  L 458.85 322.61
  Q 461.48 322.61 459.51 324.36
  Q 455.12 328.26 450.17 331.43
  Q 447.16 333.35 442.92 333.69
  C 433.69 334.43 438.07 338.48 440.63 343.02
  A 1.01 1.00 68.6 0 1 439.99 344.49
  C 435.01 345.68 428.94 346.80 424.83 342.42
  C 423.34 340.83 417.86 335.95 416.34 338.29
  C 415.30 339.90 417.75 343.40 418.78 344.47
  Q 420.39 346.15 421.43 347.85
  A 1.00 0.99 -19.8 0 1 420.72 349.35
  Q 419.38 349.56 418.02 349.52
  Q 414.12 349.41 416.04 351.95
  Q 417.07 353.31 418.09 354.67
  C 424.41 363.13 407.94 356.60 406.45 356.09
  Q 403.80 355.17 404.37 358.23
  L 405.76 365.69
  A 1.00 1.00 0.0 0 1 404.81 366.87
  Q 402.03 366.97 400.81 368.30
  Q 398.72 370.60 396.72 372.99
  Q 394.75 375.36 392.29 374.00
  Q 387.45 371.33 382.04 370.43
  A 0.98 0.97 81.8 0 1 381.31 369.88
  Q 379.57 366.28 379.03 362.31
  A 0.81 0.80 -83.6 0 0 378.53 361.68
  C 376.74 360.96 379.11 372.68 372.20 370.44
  Q 364.14 367.81 358.12 361.94
  Q 356.57 360.42 356.43 362.59
  L 355.91 370.67
  Q 355.74 373.40 353.37 372.00
  C 348.73 369.26 344.49 365.72 338.88 366.78
  A 1.00 1.00 0.0 0 1 338.10 366.60
  Q 335.56 364.72 334.24 361.94
  C 333.82 361.07 332.71 359.83 332.08 361.40
  A 1.01 0.98 50.4 0 0 332.03 362.00
  Q 332.52 364.20 331.62 366.41
  A 1.01 1.00 -66.5 0 1 330.28 366.95
  L 321.24 362.83
  A 1.03 1.03 0.0 0 0 320.52 362.78
  Q 318.97 363.28 320.24 364.26
  Q 344.85 383.21 376.00 390.53
  C 391.30 394.13 400.48 389.70 413.39 381.97
  A 1.00 1.00 0.0 0 1 414.87 382.58
  C 416.59 389.34 417.64 393.55 410.33 397.00
  C 409.14 397.56 408.88 398.81 410.69 398.85
  C 421.00 399.12 430.90 398.91 440.15 393.04
  C 442.06 391.83 450.47 388.59 450.08 393.55
  C 449.95 395.25 445.89 399.21 447.47 400.06
  A 1.03 1.02 48.8 0 0 448.27 400.12
  Q 453.08 398.48 458.12 398.46
  A 1.02 1.00 -18.0 0 1 458.93 398.86
  C 462.03 403.03 465.20 403.29 471.11 404.52
  Q 474.12 405.15 477.17 405.60
  Q 479.23 405.90 477.71 407.32
  Q 466.50 417.78 452.43 424.41
  Q 451.44 424.88 451.34 425.60
  A 0.80 0.80 0.0 0 0 452.21 426.50
  Q 454.67 426.28 456.84 427.51
  A 1.01 1.00 27.3 0 1 457.26 428.80
  C 455.31 433.02 449.44 433.51 445.65 435.14
  A 1.00 1.00 0.0 0 0 445.27 436.68
  L 450.45 443.20
  A 1.00 1.00 0.0 0 1 450.13 444.71
  C 445.08 447.32 440.69 448.35 434.75 447.37
  Q 425.11 445.77 415.32 446.16
  Q 413.23 446.25 414.61 447.82
  Q 415.08 448.35 415.53 448.90
  C 418.59 452.59 414.51 455.24 410.94 453.62
  Q 403.37 450.18 397.14 446.11
  Q 395.08 444.76 395.62 447.17
  C 396.23 449.87 397.26 456.30 392.00 454.96
  Q 382.55 452.57 372.76 452.85
  Q 367.03 453.02 363.44 446.71
  A 3.72 1.13 15.0 0 0 361.21 445.32
  Q 359.62 444.73 359.46 446.24
  A 1.01 0.98 -64.7 0 0 359.73 447.04
  C 365.20 452.74 362.77 459.81 370.55 463.73
  Q 392.25 474.65 417.50 472.28
  C 424.44 471.63 433.71 464.84 440.00 459.52
  Q 441.16 458.54 442.24 458.45
  C 449.79 457.85 433.43 471.54 442.22 469.05
  Q 445.93 468.00 451.97 465.22
  C 454.76 463.94 454.56 466.16 453.48 467.42
  Q 448.21 473.59 441.92 478.68
  C 440.49 479.84 441.30 479.97 442.32 479.63
  Q 450.31 476.99 458.62 476.02
  C 463.89 475.41 467.28 474.82 471.33 472.79
  Q 473.36 471.77 472.74 473.96
  L 471.65 477.77
  Q 471.16 479.50 472.89 479.00
  Q 476.88 477.84 481.27 478.10
  C 485.96 478.37 483.41 482.30 480.76 483.20
  A 0.34 0.34 0.0 0 0 480.54 483.58
  C 480.69 484.37 484.33 483.62 485.03 483.50
  Q 491.98 482.33 496.11 488.96
  Q 497.06 490.47 495.27 490.49
  Q 493.82 490.50 492.78 491.33
  A 1.01 1.00 68.6 0 0 492.41 492.19
  C 492.91 498.08 484.76 496.52 480.51 496.19
  Q 478.66 496.04 479.82 497.27
  A 1.04 1.01 74.1 0 0 480.32 497.56
  Q 482.30 498.02 484.14 498.85
  C 490.41 501.65 481.40 503.86 479.77 503.79
  C 474.21 503.55 463.28 506.84 466.61 514.61
  C 469.92 522.34 438.98 515.59 436.20 515.10
  A 0.53 0.52 -73.9 0 0 435.63 515.42
  Q 435.43 515.93 436.27 516.50
  Q 444.52 522.05 451.08 529.50
  A 1.02 0.95 25.4 0 1 451.32 530.11
  Q 451.47 533.08 448.18 532.93
  Q 443.54 532.73 439.62 534.33
  A 1.01 0.99 -1.6 0 0 439.06 534.91
  C 436.59 541.75 430.29 533.72 427.30 539.19
  A 1.00 0.99 16.6 0 1 426.33 539.71
  C 421.27 539.21 415.80 535.42 412.20 532.10
  Q 409.87 529.95 410.55 533.04
  L 411.52 537.50
  Q 412.10 540.20 409.50 540.74
  C 408.22 541.01 403.74 541.02 403.05 541.43
  C 401.55 542.33 406.82 544.60 408.49 545.31
  C 414.83 548.03 422.24 548.74 429.44 549.32
  Q 448.57 550.86 466.34 549.89
  Q 475.39 549.40 478.15 548.91
  Q 483.76 547.91 488.92 545.26
  Q 490.85 544.27 490.35 546.38
  Q 489.79 548.78 487.77 550.77
  Q 485.01 553.48 479.94 555.42
  C 479.06 555.75 479.48 556.74 480.43 556.80
  C 483.08 556.99 488.02 557.42 485.69 561.20
  A 0.99 0.96 -82.6 0 1 485.16 561.62
  Q 478.81 563.78 472.23 562.67
  Q 466.91 561.77 470.43 565.03
  C 474.13 568.45 478.57 571.38 480.69 576.11
  A 1.01 1.00 69.6 0 1 480.07 577.48
  C 473.25 579.57 461.45 570.70 456.14 576.05
  A 1.01 1.00 51.7 0 0 456.00 577.29
  Q 464.00 590.03 478.25 588.71
  C 492.54 587.38 505.72 583.32 519.01 579.01
  Q 523.21 577.65 527.66 577.45
  Q 529.42 577.38 528.58 578.93
  C 525.94 583.85 521.22 587.63 517.55 591.86
  A 1.01 0.99 -47.2 0 0 517.59 593.22
  L 523.27 598.92
  A 1.00 1.00 0.0 0 1 522.95 600.55
  Q 518.58 602.37 520.16 606.80
  Q 521.22 609.76 518.25 610.00
  L 512.48 610.48
  A 1.00 1.00 0.0 0 0 511.58 611.68
  L 512.63 616.69
  Q 513.01 618.46 511.31 617.83
  L 499.04 613.32
  A 0.77 0.77 0.0 0 0 498.48 613.32
  C 496.87 613.94 502.99 618.62 503.60 619.20
  Q 506.27 621.73 502.74 622.79
  C 493.15 625.67 483.89 627.84 475.98 620.04
  Q 474.17 618.26 471.70 619.21
  A 1.06 1.06 0.0 0 0 471.24 619.56
  Q 468.62 623.22 465.26 622.86
  Q 459.12 622.21 453.18 623.73
  Q 451.50 624.17 452.72 625.40
  C 458.92 631.69 473.01 635.21 481.43 637.51
  C 493.16 640.71 499.36 642.69 509.97 639.21
  Q 517.92 636.59 526.00 634.46
  Q 528.88 633.69 528.49 636.96
  L 527.91 641.78
  Q 527.52 645.09 531.11 644.58
  C 543.30 642.84 551.39 637.65 560.48 637.59
  C 570.44 637.51 560.04 649.20 555.99 650.34
  Q 553.32 651.09 551.34 653.02
  C 542.88 661.23 539.28 663.96 526.83 663.29
  A 0.51 0.50 -74.8 0 0 526.35 663.57
  Q 526.07 664.10 526.78 664.44
  Q 533.52 667.76 540.36 670.90
  Q 543.96 672.56 540.01 672.81
  L 519.92 674.10
  Q 517.89 674.23 519.47 675.52
  L 528.36 682.77
  Q 530.31 684.36 527.80 684.54
  Q 522.56 684.91 517.34 683.39
  C 513.69 682.32 510.02 679.94 506.58 677.95
  A 1.00 1.00 0.0 0 0 505.08 678.75
  C 504.70 684.86 498.87 677.16 496.55 682.99
  A 1.01 1.00 -87.3 0 1 495.92 683.57
  Q 492.88 684.55 489.74 684.73
  C 486.91 684.89 482.52 685.76 486.54 689.67
  C 487.73 690.82 492.93 692.51 495.27 693.13
  Q 509.17 696.79 523.49 697.88
  C 528.47 698.26 536.23 697.92 541.80 698.86
  Q 546.65 699.67 543.57 702.78
  A 1.00 0.99 -71.8 0 1 543.02 703.06
  C 541.98 703.23 538.64 704.25 539.89 705.73
  C 540.67 706.65 545.96 706.86 546.06 706.86
  Q 573.12 707.36 599.99 704.01
  Z
  M 270.34 124.05
  Q 271.05 120.43 270.91 116.77
  C 270.60 108.02 264.32 99.34 257.53 94.17
  Q 255.16 92.37 254.62 95.75
  A 1.04 1.03 29.6 0 0 254.85 96.57
  C 258.92 101.29 262.41 106.10 263.96 112.34
  Q 265.53 118.68 268.47 124.32
  Q 269.79 126.85 270.34 124.05
  Z
  M 268.78 147.37
  C 266.17 141.15 255.94 133.60 249.60 132.50
  Q 246.01 131.89 247.50 135.21
  Q 249.50 139.65 252.95 143.06
  C 254.45 144.56 257.15 144.84 258.87 145.86
  C 262.36 147.93 264.82 151.47 267.24 153.49
  C 272.12 157.57 269.43 148.92 268.78 147.37
  Z
  M 320.06 154.94
  C 318.60 156.17 318.88 157.97 317.50 159.63
  A 1.06 0.97 -77.3 0 1 317.04 159.95
  L 312.64 161.35
  Q 310.96 161.89 310.99 164.00
  C 311.16 174.21 292.07 161.79 290.09 172.38
  C 289.76 174.16 289.69 178.13 291.71 179.11
  C 293.56 180.02 295.06 176.74 295.98 175.70
  A 1.05 1.00 -74.1 0 1 296.51 175.39
  C 308.03 172.83 318.12 165.16 326.38 157.07
  A 1.00 1.00 0.0 0 0 326.21 155.50
  Q 322.28 153.08 320.06 154.94
  Z
  M 315.70 199.48
  Q 316.82 195.56 312.52 196.48
  Q 302.26 198.66 293.43 193.25
  C 293.10 193.05 292.38 191.94 292.30 192.88
  A 0.62 0.62 0.0 0 0 292.49 193.39
  Q 296.07 196.92 300.15 199.85
  C 305.22 203.50 309.52 201.25 314.94 200.18
  A 0.99 0.98 1.8 0 0 315.70 199.48
  Z
  M 319.19 199.57
  Q 318.59 203.24 319.48 206.75
  Q 320.06 209.05 322.50 208.07
  C 325.25 206.96 328.13 205.21 330.11 203.11
  C 332.85 200.20 326.94 196.20 326.76 201.53
  Q 326.69 203.47 325.15 202.29
  L 320.79 198.94
  A 1.00 1.00 0.0 0 0 319.19 199.57
  Z
  M 362.7747 209.8846
  A 3.51 2.42 -18.7 0 0 358.6741 208.7178
  A 3.51 2.42 -18.7 0 0 356.1253 212.1354
  A 3.51 2.42 -18.7 0 0 360.2259 213.3022
  A 3.51 2.42 -18.7 0 0 362.7747 209.8846
  Z
  M 298.29 276.93
  A 1.00 1.00 0.0 0 0 299.77 276.17
  C 300.44 270.34 301.30 257.11 298.39 251.79
  Q 297.45 250.07 296.61 251.85
  C 294.56 256.18 293.35 274.18 298.29 276.93
  Z
  M 273.92 288.94
  Q 272.36 290.14 274.25 290.69
  C 276.40 291.32 280.73 289.15 278.19 286.72
  A 1.00 0.99 47.3 0 0 276.89 286.66
  L 273.92 288.94
  Z
  M 298.7700 301.6398
  A 4.58 0.92 90.5 0 0 299.7300 297.0680
  A 4.58 0.92 90.5 0 0 298.8500 292.4802
  A 4.58 0.92 90.5 0 0 297.8900 297.0520
  A 4.58 0.92 90.5 0 0 298.7700 301.6398
  Z
  M 267.35 293.92
  Q 263.83 293.01 263.18 296.41
  A 1.02 1.01 -65.0 0 0 263.53 297.38
  C 264.89 298.47 267.04 296.57 267.89 295.51
  A 1.00 1.00 0.0 0 0 267.35 293.92
  Z
  M 229.59 306.02
  A 1.01 1.00 -51.9 0 1 229.41 304.50
  Q 231.60 302.14 229.47 300.52
  Q 227.94 299.35 224.81 302.08
  C 222.65 303.95 220.49 306.44 217.98 307.45
  C 206.12 312.19 201.53 295.86 194.23 299.75
  A 1.00 0.99 -18.2 0 0 193.71 300.77
  C 194.40 305.72 197.09 314.43 203.26 314.54
  Q 215.50 314.77 230.80 311.74
  Q 236.90 310.54 243.98 305.93
  A 0.99 0.97 -14.6 0 0 244.44 305.16
  Q 244.70 300.82 241.27 301.62
  C 237.28 302.55 235.16 309.70 229.59 306.02
  Z
  M 254.4147 299.5311
  A 2.73 1.80 -32.8 0 0 251.1449 299.4970
  A 2.73 1.80 -32.8 0 0 249.8253 302.4889
  A 2.73 1.80 -32.8 0 0 253.0951 302.5230
  A 2.73 1.80 -32.8 0 0 254.4147 299.5311
  Z
  M 443.3547 444.6661
  A 2.82 1.83 56.3 0 0 443.3125 441.3046
  A 2.82 1.83 56.3 0 0 440.2253 439.9739
  A 2.82 1.83 56.3 0 0 440.2675 443.3354
  A 2.82 1.83 56.3 0 0 443.3547 444.6661
  Z
  M 197.24 482.29
  A 1.00 1.00 0.0 0 0 198.45 482.79
  Q 208.41 479.52 217.16 473.98
  C 217.98 473.46 220.61 471.12 216.50 472.27
  Q 206.41 475.11 197.30 480.30
  A 0.99 0.98 -28.3 0 0 196.90 481.61
  L 197.24 482.29
  Z
  M 438.83 587.22
  C 437.79 589.41 454.37 588.40 455.81 588.29
  C 459.16 588.03 457.36 586.81 456.01 586.46
  Q 447.60 584.29 439.32 586.80
  A 0.79 0.78 4.3 0 0 438.83 587.22
  Z
  M 505.96 601.42
  C 506.83 602.34 509.66 601.84 510.79 601.68
  A 0.79 0.79 0.0 0 0 511.47 600.82
  L 511.42 600.26
  A 0.99 0.98 -5.4 0 0 510.33 599.36
  Q 504.57 599.95 505.96 601.42
  Z
  M 517.8786 671.0444
  A 5.39 1.29 25.9 0 0 513.5935 667.5296
  A 5.39 1.29 25.9 0 0 508.1814 666.3356
  A 5.39 1.29 25.9 0 0 512.4665 669.8504
  A 5.39 1.29 25.9 0 0 517.8786 671.0444
  Z
  M 46.5340 774.0835
  A 3.62 1.46 -26.7 0 0 42.6440 774.4057
  A 3.62 1.46 -26.7 0 0 40.0660 777.3365
  A 3.62 1.46 -26.7 0 0 43.9560 777.0143
  A 3.62 1.46 -26.7 0 0 46.5340 774.0835
  Z
  M 125.53 809.64
  Q 123.25 809.37 122.26 807.41
  Q 120.64 804.18 119.17 800.88
  A 1.00 1.00 0.0 0 0 117.52 800.61
  L 115.40 802.92
  A 1.01 1.00 -40.9 0 1 113.84 802.81
  L 111.08 798.87
  Q 109.09 796.03 107.48 798.50
  L 101.04 808.37
  A 1.00 1.00 0.0 0 1 99.47 808.51
  L 88.98 797.27
  A 1.01 1.01 0.0 0 0 87.51 797.28
  L 78.40 807.15
  A 1.03 1.00 66.5 0 0 78.13 807.87
  C 78.23 810.30 85.22 812.76 86.87 810.18
  Q 88.07 808.29 90.44 809.32
  L 103.65 815.05
  A 1.00 1.00 0.0 0 0 104.76 814.83
  Q 105.64 813.94 105.14 812.85
  A 1.00 1.00 0.0 0 1 105.94 811.44
  C 111.12 810.83 116.35 811.76 121.58 811.64
  C 128.36 811.50 134.51 808.75 140.18 805.30
  A 0.67 0.63 74.7 0 0 140.49 804.72
  Q 140.46 804.17 139.74 804.22
  Q 134.29 804.56 132.48 804.59
  Q 127.77 804.66 126.61 808.91
  A 0.99 0.99 0.0 0 1 125.53 809.64
  Z
  M 152.4483 799.9604
  A 4.07 1.41 -16.7 0 0 148.1448 799.7795
  A 4.07 1.41 -16.7 0 0 144.6517 802.2996
  A 4.07 1.41 -16.7 0 0 148.9552 802.4805
  A 4.07 1.41 -16.7 0 0 152.4483 799.9604
  Z
  M 124.4316 909.7521
  A 2.68 1.86 -36.6 0 0 121.1710 909.8568
  A 2.68 1.86 -36.6 0 0 120.1284 912.9479
  A 2.68 1.86 -36.6 0 0 123.3890 912.8432
  A 2.68 1.86 -36.6 0 0 124.4316 909.7521
  Z"
/>
</svg>
